<svg width="95" height="48" viewBox="0 0 95 48" fill="none" xmlns="http://www.w3.org/2000/svg">
<path fill-rule="evenodd" clip-rule="evenodd" d="M24 48C37.2548 48 48 37.2548 48 24C48 10.7452 37.2548 0 24 0C10.7452 0 0 10.7452 0 24C0 37.2548 10.7452 48 24 48ZM24 45C35.598 45 45 35.598 45 24C45 12.402 35.598 3 24 3C12.402 3 3 12.402 3 24C3 35.598 12.402 45 24 45Z" fill="#0075C9"/>
<path d="M23.0883 35.4409V41.5548C20.1494 41.394 17.2987 40.4935 14.801 38.9369V37.28C14.8405 36.0701 14.6377 34.8646 14.2043 33.7343L9.49715 26.096C9.25968 25.7258 9.13846 25.293 9.14908 24.8534C9.14009 24.519 9.23254 24.1898 9.41427 23.9089C21.8452 7.20751 22.2762 6.46191 22.2762 6.46191C23.9336 8.68214 22.5745 10.6041 21.696 12.2279C21.2817 13.0066 20.8839 13.7025 20.4861 14.3653C19.6574 15.7239 18.6463 17.2648 17.685 18.8057C16.9358 19.8715 16.5468 21.1486 16.5745 22.4509C16.6158 23.9984 17.1306 25.4961 18.0496 26.7422C19.153 28.1959 20.4526 29.4895 21.9115 30.5862C22.4568 31.0419 22.8356 31.6653 22.9889 32.359C23.115 33.3812 23.1594 34.4117 23.1215 35.4409" fill="#0075C9"/>
<path d="M18.0496 22.368C18.0365 21.1888 18.3743 20.0324 19.0201 19.0455C19.6658 18.0586 20.5905 17.2859 21.6765 16.8256C22.7626 16.3652 23.961 16.2379 25.1196 16.4598C26.2782 16.6818 27.3446 17.243 28.1834 18.0722C29.0222 18.9014 29.5955 19.9611 29.8305 21.1167C30.0656 22.2723 29.9517 23.4717 29.5033 24.5625C29.055 25.6532 28.2924 26.5861 27.3125 27.2427C26.3326 27.8993 25.1796 28.2499 23.9999 28.25C23.2229 28.2543 22.4526 28.1056 21.733 27.8124C21.0134 27.5192 20.3587 27.0871 19.8061 26.5409C19.2536 25.9947 18.8141 25.3451 18.5127 24.6291C18.2113 23.9131 18.054 23.1448 18.0496 22.368Z" fill="#0075C9"/>
<path d="M38.5026 26.0959L33.812 33.701C33.3847 34.8326 33.1875 36.0381 33.2319 37.2468C33.2319 37.6113 33.2319 38.3072 33.2319 38.9037C30.7354 40.4629 27.884 41.3636 24.9446 41.5215V35.4408C24.9067 34.4116 24.951 33.3811 25.0772 32.359C25.2417 31.6658 25.6253 31.0441 26.1711 30.5861C27.6248 29.489 28.919 28.1953 30.0164 26.7421C30.9422 25.4996 31.4578 23.9997 31.4915 22.4508C31.5107 21.1241 31.0976 19.8273 30.3147 18.7559C29.3534 17.215 28.3423 15.6741 27.497 14.3155C27.0993 13.6527 26.7015 12.9568 26.2871 12.1781C25.3921 10.5212 24.0661 8.63234 25.6904 6.41211C25.6904 6.41211 26.1379 7.15771 38.5689 23.8591C38.7564 24.1381 38.8547 24.4675 38.8506 24.8036C38.857 25.2347 38.7296 25.6572 38.486 26.0131" fill="#0075C9"/>
<path d="M57.4062 29V19.0469H60.8174C61.943 19.0469 62.7998 19.2725 63.3877 19.7236C63.9756 20.1748 64.2695 20.847 64.2695 21.7402C64.2695 22.196 64.1465 22.6061 63.9004 22.9707C63.6543 23.3353 63.2943 23.6178 62.8203 23.8184C63.3581 23.9642 63.7728 24.2399 64.0645 24.6455C64.3607 25.0465 64.5088 25.5296 64.5088 26.0947C64.5088 27.029 64.208 27.7467 63.6064 28.248C63.0094 28.7493 62.1527 29 61.0361 29H57.4062ZM59.1357 24.5088V27.6191H61.0566C61.599 27.6191 62.0228 27.4847 62.3281 27.2158C62.6335 26.9469 62.7861 26.5732 62.7861 26.0947C62.7861 25.0602 62.2575 24.5316 61.2002 24.5088H59.1357ZM59.1357 23.2373H60.8311C61.3688 23.2373 61.7881 23.1165 62.0889 22.875C62.3942 22.6289 62.5469 22.2826 62.5469 21.8359C62.5469 21.3438 62.4056 20.9883 62.123 20.7695C61.8451 20.5508 61.4098 20.4414 60.8174 20.4414H59.1357V23.2373ZM67.6447 29H65.9836V21.6035H67.6447V29ZM65.8811 19.6826C65.8811 19.4274 65.9608 19.2155 66.1203 19.0469C66.2844 18.8783 66.5168 18.7939 66.8176 18.7939C67.1184 18.7939 67.3508 18.8783 67.5148 19.0469C67.6789 19.2155 67.7609 19.4274 67.7609 19.6826C67.7609 19.9333 67.6789 20.1429 67.5148 20.3115C67.3508 20.4756 67.1184 20.5576 66.8176 20.5576C66.5168 20.5576 66.2844 20.4756 66.1203 20.3115C65.9608 20.1429 65.8811 19.9333 65.8811 19.6826ZM70.8012 21.6035L70.849 22.458C71.3959 21.7972 72.1137 21.4668 73.0023 21.4668C74.5427 21.4668 75.3266 22.3486 75.3539 24.1123V29H73.6928V24.208C73.6928 23.7386 73.5902 23.3923 73.3852 23.1689C73.1846 22.9411 72.8542 22.8271 72.3939 22.8271C71.724 22.8271 71.225 23.1302 70.8969 23.7363V29H69.2357V21.6035H70.8012ZM76.5416 25.2471C76.5416 24.1077 76.8059 23.194 77.3346 22.5059C77.8632 21.8132 78.5719 21.4668 79.4605 21.4668C80.2444 21.4668 80.8779 21.7402 81.3609 22.2871V18.5H83.0221V29H81.5182L81.4361 28.2344C80.9394 28.8359 80.2763 29.1367 79.4469 29.1367C78.581 29.1367 77.8792 28.7881 77.3414 28.0908C76.8082 27.3936 76.5416 26.4456 76.5416 25.2471ZM78.2027 25.3906C78.2027 26.1426 78.3463 26.7305 78.6334 27.1543C78.9251 27.5736 79.3375 27.7832 79.8707 27.7832C80.5497 27.7832 81.0465 27.4801 81.3609 26.874V23.7158C81.0556 23.1234 80.5634 22.8271 79.8844 22.8271C79.3466 22.8271 78.9319 23.0413 78.6402 23.4697C78.3486 23.8936 78.2027 24.5339 78.2027 25.3906ZM86.3221 29H84.6609V21.6035H86.3221V29ZM84.5584 19.6826C84.5584 19.4274 84.6382 19.2155 84.7977 19.0469C84.9617 18.8783 85.1941 18.7939 85.4949 18.7939C85.7957 18.7939 86.0281 18.8783 86.1922 19.0469C86.3563 19.2155 86.4383 19.4274 86.4383 19.6826C86.4383 19.9333 86.3563 20.1429 86.1922 20.3115C86.0281 20.4756 85.7957 20.5576 85.4949 20.5576C85.1941 20.5576 84.9617 20.4756 84.7977 20.3115C84.6382 20.1429 84.5584 19.9333 84.5584 19.6826ZM91.1943 29.1367C90.1416 29.1367 89.2871 28.8063 88.6309 28.1455C87.9792 27.4801 87.6533 26.596 87.6533 25.4932V25.2881C87.6533 24.5498 87.7946 23.8913 88.0771 23.3125C88.3643 22.7292 88.7653 22.2757 89.2803 21.9521C89.7952 21.6286 90.3695 21.4668 91.0029 21.4668C92.0101 21.4668 92.7871 21.7881 93.334 22.4307C93.8854 23.0732 94.1611 23.9824 94.1611 25.1582V25.8281H89.3281C89.3783 26.4388 89.5811 26.9219 89.9365 27.2773C90.2965 27.6328 90.7477 27.8105 91.29 27.8105C92.0511 27.8105 92.6709 27.5029 93.1494 26.8877L94.0449 27.7422C93.7487 28.1842 93.3522 28.5283 92.8555 28.7744C92.3633 29.016 91.8096 29.1367 91.1943 29.1367ZM90.9961 22.7998C90.5404 22.7998 90.1712 22.9593 89.8887 23.2783C89.6107 23.5973 89.4329 24.0417 89.3555 24.6113H92.5205V24.4883C92.484 23.9323 92.3359 23.513 92.0762 23.2305C91.8164 22.9434 91.4564 22.7998 90.9961 22.7998Z" fill="#0075C9"/>
</svg>
