<svg width="26" height="24" viewBox="0 0 26 24" fill="none" xmlns="http://www.w3.org/2000/svg">
<path d="M7.33936 11H9.43633V13H7.33936V11ZM7.33936 15H9.43633V17H7.33936V15ZM11.5333 11H13.6303V13H11.5333V11ZM11.5333 15H13.6303V17H11.5333V15ZM15.7272 11H17.8242V13H15.7272V11ZM15.7272 15H17.8242V17H15.7272V15Z" fill="#0151A3"/>
<path d="M5.24248 22H19.9213C21.0777 22 22.0182 21.103 22.0182 20V6C22.0182 4.897 21.0777 4 19.9213 4H17.8243V2H15.7273V4H9.43642V2H7.33945V4H5.24248C4.086 4 3.14551 4.897 3.14551 6V20C3.14551 21.103 4.086 22 5.24248 22ZM19.9213 8L19.9223 20H5.24248V8H19.9213Z" fill="#0151A3"/>
</svg>
