<svg width="11" height="11" viewBox="0 0 11 11" fill="none" xmlns="http://www.w3.org/2000/svg">
<path fill-rule="evenodd" clip-rule="evenodd" d="M5.50016 0.083374C2.51016 0.083374 0.0834961 2.51004 0.0834961 5.50004C0.0834961 8.49004 2.51016 10.9167 5.50016 10.9167C8.49016 10.9167 10.9168 8.49004 10.9168 5.50004C10.9168 2.51004 8.49016 0.083374 5.50016 0.083374ZM5.50013 9.83337C3.11138 9.83337 1.1668 7.88878 1.1668 5.50003C1.1668 3.11128 3.11138 1.1667 5.50013 1.1667C7.88888 1.1667 9.83346 3.11128 9.83346 5.50003C9.83346 7.88878 7.88888 9.83337 5.50013 9.83337ZM4.41686 6.67546L7.98644 3.10588L8.75019 3.87505L4.41686 8.20838L2.25019 6.04171L3.01394 5.27796L4.41686 6.67546Z" fill="#A0A8B2"/>
</svg>
