<svg width="48" height="48" viewBox="0 0 48 48" fill="none" xmlns="http://www.w3.org/2000/svg">
<path fill-rule="evenodd" clip-rule="evenodd" d="M24 48C37.2548 48 48 37.2548 48 24C48 10.7452 37.2548 0 24 0C10.7452 0 0 10.7452 0 24C0 37.2548 10.7452 48 24 48ZM24 45C35.598 45 45 35.598 45 24C45 12.402 35.598 3 24 3C12.402 3 3 12.402 3 24C3 35.598 12.402 45 24 45Z" fill="white"/>
<path d="M23.0883 35.4409V41.5548C20.1494 41.394 17.2987 40.4935 14.801 38.9369V37.28C14.8405 36.0701 14.6377 34.8646 14.2043 33.7343L9.49715 26.096C9.25968 25.7258 9.13846 25.293 9.14908 24.8534C9.14009 24.519 9.23254 24.1898 9.41427 23.9089C21.8452 7.20751 22.2762 6.46191 22.2762 6.46191C23.9336 8.68214 22.5745 10.6041 21.696 12.2279C21.2817 13.0066 20.8839 13.7025 20.4861 14.3653C19.6574 15.7239 18.6463 17.2648 17.685 18.8057C16.9358 19.8715 16.5468 21.1486 16.5745 22.4509C16.6158 23.9984 17.1306 25.4961 18.0496 26.7422C19.153 28.1959 20.4526 29.4895 21.9115 30.5862C22.4568 31.0419 22.8356 31.6653 22.9889 32.359C23.115 33.3812 23.1594 34.4117 23.1215 35.4409" fill="white"/>
<path d="M18.0497 22.368C18.0365 21.1888 18.3743 20.0324 19.0201 19.0455C19.6659 18.0586 20.5905 17.2859 21.6766 16.8256C22.7626 16.3652 23.9611 16.2379 25.1196 16.4598C26.2782 16.6818 27.3446 17.243 28.1834 18.0722C29.0222 18.9014 29.5956 19.9611 29.8306 21.1167C30.0656 22.2723 29.9517 23.4717 29.5034 24.5625C29.055 25.6532 28.2924 26.5861 27.3125 27.2427C26.3326 27.8993 25.1796 28.2499 24 28.25C23.2229 28.2543 22.4526 28.1056 21.733 27.8124C21.0135 27.5192 20.3587 27.0871 19.8062 26.5409C19.2536 25.9947 18.8141 25.3451 18.5128 24.6291C18.2114 23.9131 18.054 23.1448 18.0497 22.368Z" fill="white"/>
<path d="M38.5026 26.0959L33.8119 33.701C33.3847 34.8326 33.1875 36.0381 33.2318 37.2468C33.2318 37.6113 33.2318 38.3072 33.2318 38.9037C30.7353 40.4629 27.884 41.3636 24.9445 41.5215V35.4408C24.9066 34.4116 24.951 33.3811 25.0771 32.359C25.2417 31.6658 25.6253 31.0441 26.1711 30.5861C27.6248 29.489 28.9189 28.1953 30.0164 26.7421C30.9421 25.4996 31.4577 23.9997 31.4915 22.4508C31.5107 21.1241 31.0976 19.8273 30.3147 18.7559C29.3534 17.215 28.3423 15.6741 27.497 14.3155C27.0992 13.6527 26.7014 12.9568 26.2871 12.1781C25.3921 10.5212 24.0661 8.63234 25.6904 6.41211C25.6904 6.41211 26.1379 7.15771 38.5689 23.8591C38.7564 24.1381 38.8547 24.4675 38.8506 24.8036C38.8569 25.2347 38.7296 25.6572 38.486 26.0131" fill="white"/>
</svg>
